{"title":"Maleficent 2014 DVDRip x264 Ac3-MiLLENiUM","uid":10791895,"size":1282420551,"categoryP":"video","categoryS":"movies","magnet":"?xt=urn:btih:52e6800ec96134635cb795446a78f93b153d72e1&amp;dn=Maleficent+2014+DVDRip+x264+Ac3-MiLLENiUM&amp;tr=udp%3A%2F%2Ftracker.openbittorrent.com%3A80&amp;tr=udp%3A%2F%2Fopen.demonii.com%3A1337&amp;tr=udp%3A%2F%2Ftracker.coppersurfer.tk%3A6969&amp;tr=udp%3A%2F%2Fexodus.desync.com%3A6969","seeders":2,"leechers":0,"uploader":"ali1997a","files":4,"time":1408257015,"description":"SilverTorrent - Clean And Verified Torrents Download\n &lt;a href=&quot;\nhttp://i.imgur.com/ky6BGho.png&quot; rel=&quot;nofollow&quot; target=&quot;_NEW&quot;&gt;\nhttp://i.imgur.com/ky6BGho.png&lt;/a&gt;\n &lt;a href=&quot;\nhttp://i.imgur.com/Jmdc4kT.jpg&quot; rel=&quot;nofollow&quot; target=&quot;_NEW&quot;&gt;\nhttp://i.imgur.com/Jmdc4kT.jpg&lt;/a&gt;\n\nMaleficent 2014 DVDRip x264 Ac3-MiLLENiUM\n\niMDB: http://www.imdb.com/title/tt1587310/\n\nGeneral\nComplete name: Maleficent 2014 DVDRip x264 Ac3-MiLLENiUM.mkv\nSource: R4DVDR [thanks]\nFormat: Matroska\nFormat version: Version 2\nFile size: 1.14 GiB\nDuration: 1h 37mn\nOverall bit rate mode: Variable\nOverall bit rate: 1 674 Kbps\nVideo\nID: 1\nFormat: AVC\nFormat/Info: Advanced Video Codec\nFormat profile: &lt;a class=&quot;__cf_email__&quot; href=&quot;/cdn-cgi/l/email-protection&quot; data-cfemail=&quot;eca4858b84aca0d8c2dd&quot;&gt;[email&amp;#160;protected]&lt;/a&gt;&lt;script cf-hash='f9e31' type=&quot;text/javascript&quot;&gt;\n/* &lt;![CDATA[ */!function(){try{var t=&quot;currentScript&quot;in document?document.currentScript:function(){for(var t=document.getElementsByTagName(&quot;script&quot;),e=t.length;e--;)if(t[e].getAttribute(&quot;cf-hash&quot;))return t[e]}();if(t&amp;&amp;t.previousSibling){var e,r,n,i,c=t.previousSibling,a=c.getAttribute(&quot;data-cfemail&quot;);if(a){for(e=&quot;&quot;,r=parseInt(a.substr(0,2),16),n=2;a.length-n;n+=2)i=parseInt(a.substr(n,2),16)^r,e+=String.fromCharCode(i);e=document.createTextNode(e),c.parentNode.replaceChild(e,c)}}}catch(u){}}();/* ]]&gt; */&lt;/script&gt;\nFormat settings, CABAC: Yes\nFormat settings, ReFrames: 3 frames\nCodec ID: V_MPEG4/ISO/AVC\nDuration: 1h 37mn\nBit rate mode: Variable\nBit rate: 1 257 Kbps\nMaximum bit rate: 40.0 Mbps\nWidth: 720 pixels\nHeight: 304 pixels\nDisplay aspect ratio: 2.35:1\nFrame rate: 23.976 fps\nColor space: YUV\nChroma subsampling: 4:2:0\nBit depth: 8 bits\nScan type: Progressive\nBits/(Pixel*Frame): 0.240\nStream size: 876 MiB (75%)\nWriting library: x264 core 142 r2453 ea0ca51\nDefault: Yes\nForced: No\nColor primaries: BT.709-5, BT.1361, IEC 61966-2-4, SMPTE RP177\nTransfer characteristics: BT.709-5, BT.1361\nMatrix coefficients: BT.709-5, BT.1361, IEC 61966-2-4 709, SMPTE RP177\n\nAudio\nID: 2\nFormat: AC-3\nFormat/Info: Audio Coding 3\nMode extension: CM (complete main)\nCodec ID: A_AC3\nDuration: 1h 37mn\nBit rate mode: Constant\nBit rate: 384 Kbps\nChannel(s): 6 channels\nChannel positions: Front: L C R, Side: L R, LFE\nSampling rate: 48.0 KHz\nBit depth: 16 bits\nCompression mode: Lossy\nStream size: 268 MiB (23%)\nDefault: Yes\nForced: No\n &lt;a href=&quot;\nhttp://i.imgur.com/wOnNCHK.png&quot; rel=&quot;nofollow&quot; target=&quot;_NEW&quot;&gt;\nhttp://i.imgur.com/wOnNCHK.png&lt;/a&gt;\n &lt;a href=&quot;\nhttp://i.imgur.com/a2quDgb.png&quot; rel=&quot;nofollow&quot; target=&quot;_NEW&quot;&gt;\nhttp://i.imgur.com/a2quDgb.png&lt;/a&gt;\n &lt;a href=&quot;\nhttp://i.imgur.com/glPMM83.png&quot; rel=&quot;nofollow&quot; target=&quot;_NEW&quot;&gt;\nhttp://i.imgur.com/glPMM83.png&lt;/a&gt;\n &lt;a href=&quot;\nhttp://i.imgur.com/7Nin41W.png&quot; rel=&quot;nofollow&quot; target=&quot;_NEW&quot;&gt;\nhttp://i.imgur.com/7Nin41W.png&lt;/a&gt;","torrent":{"xt":"urn:btih:52e6800ec96134635cb795446a78f93b153d72e1","amp;dn":"Maleficent+2014+DVDRip+x264+Ac3-MiLLENiUM","amp;tr":["udp%3A%2F%2Ftracker.openbittorrent.com%3A80","udp%3A%2F%2Fopen.demonii.com%3A1337","udp%3A%2F%2Ftracker.coppersurfer.tk%3A6969","udp%3A%2F%2Fexodus.desync.com%3A6969"],"infoHash":"52e6800ec96134635cb795446a78f93b153d72e1","infoHashBuffer":{"type":"Buffer","data":[82,230,128,14,201,97,52,99,92,183,149,68,106,120,249,59,21,61,114,225]},"announce":[],"urlList":[]}}